<svg id="logosandtypes_com" data-name="logosandtypes com" xmlns="http://www.w3.org/2000/svg" viewBox="0 0 150 150"><defs><style>.cls-1{fill:none;}.cls-2{fill:#ee4055;}</style></defs><path class="cls-1" d="M0,.2H150v150H0Z" transform="translate(0 -0.2)"/><path class="cls-2" d="M91.56,16.51c-21.48,0-42.95.21-64.42.34-6.86-.2-8.24,2.59-7.92,8.86.13,34.26,0,68.53.29,102.78.2,5.19,4.74,5.12,8.84,5.08,11.17,0,53.84.22,64,.08a54.08,54.08,0,0,0,10.78-1.09c20.62-4.59,32.7-23.42,32.87-39q.18-17.85.12-35.71C135.11,34.11,115.85,16.25,91.56,16.51Zm19.92,62.14c-16.47,21-50.36,21-66.84,0a3,3,0,0,1,.74-4.38c1.62-1.2,3.28-2.35,5-3.47,2-1.37,3.33-1.28,5,.53a30.55,30.55,0,0,0,45.46,0c1.65-1.81,2.95-1.9,5-.53,1.68,1.12,3.34,2.27,5,3.47A3,3,0,0,1,111.48,78.65Z" transform="translate(0 -0.2)"/></svg>